<?xml version="1.0" encoding="UTF-8" standalone="no"?>
<svg width="1500px" height="1000px" viewBox="0 0 1500 1000" version="1.1" xmlns="http://www.w3.org/2000/svg" xmlns:xlink="http://www.w3.org/1999/xlink" xmlns:sketch="http://www.bohemiancoding.com/sketch/ns">
    <!-- Generator: Sketch 3.4.4 (17249) - http://www.bohemiancoding.com/sketch -->
    <title>Labs under construction lading page Copy</title>
    <desc>Created with Sketch.</desc>
    <defs>
        <radialGradient cx="50%" cy="50%" fx="50%" fy="50%" r="50%" id="radialGradient-1">
            <stop stop-color="#78B7FF" offset="0%"></stop>
            <stop stop-color="#1E77DE" offset="100%"></stop>
        </radialGradient>
    </defs>
    <g id="Page-1" stroke="none" stroke-width="1" fill="none" fill-rule="evenodd" sketch:type="MSPage">
        <g id="Labs-under-construction-lading-page-Copy" sketch:type="MSArtboardGroup">
            <rect id="Rectangle-1135" fill="url(#radialGradient-1)" sketch:type="MSShapeGroup" x="0" y="0" width="1500" height="1000"></rect>
            <g id="grid" sketch:type="MSLayerGroup" fill="#FFFFFF" opacity="0.05">
                <g id="horizontal" transform="translate(50.000000, 0.000000)" sketch:type="MSShapeGroup">
                    <rect id="Rectangle-1136" x="0" y="0" width="1" height="1000"></rect>
                    <rect id="Rectangle-1137" x="50" y="0" width="1" height="1000"></rect>
                    <rect id="Rectangle-1138" x="100" y="0" width="1" height="1000"></rect>
                    <rect id="Rectangle-1139" x="150" y="0" width="1" height="1000"></rect>
                    <rect id="Rectangle-1140" x="200" y="0" width="1" height="1000"></rect>
                    <rect id="Rectangle-1141" x="250" y="0" width="1" height="1000"></rect>
                    <rect id="Rectangle-1142" x="300" y="0" width="1" height="1000"></rect>
                    <rect id="Rectangle-1143" x="350" y="0" width="1" height="1000"></rect>
                    <rect id="Rectangle-1144" x="400" y="0" width="1" height="1000"></rect>
                    <rect id="Rectangle-1145" x="450" y="0" width="1" height="1000"></rect>
                    <rect id="Rectangle-1146" x="550" y="0" width="1" height="1000"></rect>
                    <rect id="Rectangle-1147" x="500" y="0" width="1" height="1000"></rect>
                    <rect id="Rectangle-1148" x="550" y="0" width="1" height="1000"></rect>
                    <rect id="Rectangle-1149" x="600" y="0" width="1" height="1000"></rect>
                    <rect id="Rectangle-1150" x="650" y="0" width="1" height="1000"></rect>
                    <rect id="Rectangle-1151" x="700" y="0" width="1" height="1000"></rect>
                    <rect id="Rectangle-1152" x="750" y="0" width="1" height="1000"></rect>
                    <rect id="Rectangle-1153" x="800" y="0" width="1" height="1000"></rect>
                    <rect id="Rectangle-1154" x="850" y="0" width="1" height="1000"></rect>
                    <rect id="Rectangle-1155" x="900" y="0" width="1" height="1000"></rect>
                    <rect id="Rectangle-1156" x="950" y="0" width="1" height="1000"></rect>
                    <rect id="Rectangle-1157" x="1000" y="0" width="1" height="1000"></rect>
                    <rect id="Rectangle-1158" x="1050" y="0" width="1" height="1000"></rect>
                    <rect id="Rectangle-1159" x="1100" y="0" width="1" height="1000"></rect>
                    <rect id="Rectangle-1160" x="1150" y="0" width="1" height="1000"></rect>
                    <rect id="Rectangle-1161" x="1200" y="0" width="1" height="1000"></rect>
                    <rect id="Rectangle-1162" x="1250" y="0" width="1" height="1000"></rect>
                    <rect id="Rectangle-1163" x="1300" y="0" width="1" height="1000"></rect>
                    <rect id="Rectangle-1164" x="1350" y="0" width="1" height="1000"></rect>
                    <rect id="Rectangle-1165" x="1400" y="0" width="1" height="1000"></rect>
                </g>
                <g id="vertical" sketch:type="MSShapeGroup">
                    <rect id="Rectangle-1167" x="0" y="0" width="1500" height="1"></rect>
                    <rect id="Rectangle-1168" x="0" y="50" width="1500" height="1"></rect>
                    <rect id="Rectangle-1169" x="0" y="100" width="1500" height="1"></rect>
                    <rect id="Rectangle-1170" x="0" y="150" width="1500" height="1"></rect>
                    <rect id="Rectangle-1171" x="0" y="200" width="1500" height="1"></rect>
                    <rect id="Rectangle-1172" x="0" y="250" width="1500" height="1"></rect>
                    <rect id="Rectangle-1173" x="0" y="300" width="1500" height="1"></rect>
                    <rect id="Rectangle-1174" x="0" y="350" width="1500" height="1"></rect>
                    <rect id="Rectangle-1175" x="0" y="400" width="1500" height="1"></rect>
                    <rect id="Rectangle-1176" x="0" y="450" width="1500" height="1"></rect>
                    <rect id="Rectangle-1177" x="0" y="500" width="1500" height="1"></rect>
                    <rect id="Rectangle-1178" x="0" y="550" width="1500" height="1"></rect>
                    <rect id="Rectangle-1179" x="0" y="600" width="1500" height="1"></rect>
                    <rect id="Rectangle-1180" x="0" y="650" width="1500" height="1"></rect>
                    <rect id="Rectangle-1181" x="0" y="700" width="1500" height="1"></rect>
                    <rect id="Rectangle-1182" x="0" y="750" width="1500" height="1"></rect>
                    <rect id="Rectangle-1183" x="0" y="800" width="1500" height="1"></rect>
                    <rect id="Rectangle-1184" x="0" y="850" width="1500" height="1"></rect>
                    <rect id="Rectangle-1185" x="0" y="900" width="1500" height="1"></rect>
                    <rect id="Rectangle-1186" x="0" y="950" width="1500" height="1"></rect>
                </g>
            </g>
        </g>
    </g>
</svg>